<svg xmlns="http://www.w3.org/2000/svg" xmlns:xlink="http://www.w3.org/1999/xlink" width="48" height="48"><defs><linearGradient id="c"><stop offset="0" stop-color="#fff"/><stop offset="1" stop-color="#fff" stop-opacity="0"/></linearGradient><linearGradient id="b"><stop offset="0" stop-color="#888a85"/><stop offset="1" stop-color="#b0b2ae"/></linearGradient><linearGradient id="a"><stop offset="0"/><stop offset="1" stop-opacity="0"/></linearGradient><radialGradient xlink:href="#a" id="d" cx="23.625" cy="25.75" fx="23.625" fy="25.75" r="18.375" gradientTransform="matrix(1 0 0 .35374 0 16.64)" gradientUnits="userSpaceOnUse"/><linearGradient xlink:href="#b" id="e" x1="27.384" y1="23.646" x2="28.933" y2="28.646" gradientUnits="userSpaceOnUse" gradientTransform="matrix(.97728 0 0 1 .03 0)"/><linearGradient xlink:href="#c" id="g" x1="26.516" y1="6.284" x2="29.703" y2="27.232" gradientUnits="userSpaceOnUse"/></defs><g color="#000"><path d="M42 25.75a18.375 6.5 0 1 1-36.75 0 18.375 6.5 0 1 1 36.75 0z" transform="matrix(1.3122 -.10527 .14022 .83082 -14.053 10.595)" opacity=".2" fill="url(#d)" fill-rule="evenodd" overflow="visible"/><path d="M21.313 13.19L1.258 33.344l33.69-6.948 1.026-4.75 10.91-4.094-12.007-1.594-4.82 2.687-.916-3.79-7.827-1.668z" id="f" fill="#eeeeec" fill-rule="evenodd" stroke="#888a85" stroke-width="2" stroke-linecap="round" stroke-linejoin="round" overflow="visible"/><path d="M29.013 14.852L.905 33.535l20.42-20.158 7.688 1.475z" fill="#eeeeec" fill-rule="evenodd" overflow="visible"/><path d="M35.663 20.998l-.878 5.287-33.16 6.758 34.038-12.045z" fill="url(#e)" fill-rule="evenodd" overflow="visible"/><path d="M1.625 33.29L34.78 16.08l11.77 1.476L1.626 33.29z" fill="#eeeeec" fill-rule="evenodd" overflow="visible"/><path d="M29.038 14.79l.917 3.863L1.385 33.29l27.653-18.5z" fill="#d3d7cf" fill-rule="evenodd" overflow="visible"/><path xlink:href="#f" d="M21.5 13.875L3.156 32.28l29.782-6.624 1.374-4.187c.062-.195.213-.346.407-.407l9.436-3.22-9.187-1.218-4.595 2.563c-.167.093-.367.105-.544.032-.176-.073-.31-.223-.36-.407l-.814-3.438-7.156-1.5z" fill="none" stroke="url(#g)" stroke-miterlimit="4.5" overflow="visible"/></g></svg>